# xmcd
#
# Track frame offsets: 
#        150
#        16081
#        30005
#        42707
#        57313
#        78328
#        90609
#        104786
#        118575
#        137135
#
# Disc length: 2127 seconds
#
# Revision: 0
# Processed by: cddbd v1.5.2PL0 Copyright (c) Steve Scherf et al.
# Submitted via: ExactAudioCopy v1.0b3
#
DISCID=7c084d0a
DTITLE=Willie Rainsford - Live
DYEAR=1900
DGENRE=Country
TTITLE0=G. Dobbins - C. Thomas - Let's Get On With The Lovin'
TTITLE1=William Rainsford - Here It Comes Again
TTITLE2=William Rainsford - Keep On Keepin' On
TTITLE3=R. Bourke - G. Dobbins - J. Wilson - No Relief In Sight
TTITLE4=R. Bourke - G. Dobbins - J. Wilson - Cheaters Kit
TTITLE5=William Rainsford - Rollin' In My Sweet Baby's Arms
TTITLE6=William Rainsford - Left Over Feelings
TTITLE7=William Rainsford - Bottle Do Your Thing
TTITLE8=William Rainsford - Only One Thing Left To Go
TTITLE9=Tom T. Hall - Me And Jesus
EXTD=
EXTT0=
EXTT1=
EXTT2=
EXTT3=
EXTT4=
EXTT5=
EXTT6=
EXTT7=
EXTT8=
EXTT9=
PLAYORDER=
